<svg xmlns="http://www.w3.org/2000/svg" width="39" height="42" viewBox="0 0 39 42"><g><g><path fill="#50c3af" d="M38.161 19.755L38.076 31a1.667 1.667 0 0 1-1.665 1.656h-.013a1.667 1.667 0 0 1-1.653-1.682l.086-11.243a15.393 15.393 0 0 0-4.442-10.982A15.34 15.34 0 0 0 19.496 4.13h-.12c-8.467 0-15.388 6.866-15.453 15.363l-.086 11.243a1.667 1.667 0 0 1-1.665 1.655H2.16a1.667 1.667 0 0 1-1.652-1.68l.086-11.244C.672 9.09 9.175.7 19.521.794a18.647 18.647 0 0 1 13.24 5.614 18.71 18.71 0 0 1 5.4 13.347zM31.75 22.57c.983 1.376 1.001 2.76 1 2.914l-.08 10.52C32.654 37.906 31.1 41.5 25.33 41.5h-.11a1.459 1.459 0 0 1-1.446-1.471l.143-18.706a1.458 1.458 0 0 1 1.457-1.449h.011c3.686.029 5.495 1.482 6.363 2.696zm-1.914 2.891c-.012-.363-.224-2.082-3.015-2.55l-.12 15.574c2.8-.425 3.037-2.145 3.055-2.529zm-15.118-5.24c.27.275.421.648.419 1.035l-.144 18.705a1.458 1.458 0 0 1-1.457 1.449h-.011c-3.686-.029-5.494-1.482-6.362-2.695-.984-1.376-1.002-2.76-1.001-2.914l.08-10.52c.015-1.902 1.568-5.497 7.34-5.497h.108c.387.004.757.16 1.028.436zm-2.507 2.578c-2.8.426-3.037 2.147-3.055 2.53l-.08 10.495c.012.363.225 2.082 3.015 2.55z"/></g></g></svg>