<svg xmlns="http://www.w3.org/2000/svg" width="38" height="35" viewBox="0 0 38 35"><g><g><path fill="#50c3af" d="M34.885 19.254c-7.755 8.64-14.607 14.763-14.675 14.824a1.666 1.666 0 0 1-2.22 0c-.068-.061-6.92-6.185-14.675-14.824C.112 15.687-.7 11.094 1.142 6.969 2.925 2.98 6.71.4 10.784.4c4.127 0 6.778 1.835 8.316 3.793C20.638 2.235 23.29.4 27.417.4c4.074 0 7.858 2.579 9.64 6.57 1.843 4.124 1.03 8.717-2.172 12.284zm-.873-10.926c-1.227-2.749-3.878-4.595-6.595-4.595-5.548 0-6.653 4.253-6.697 4.433a1.668 1.668 0 0 1-3.24 0c-.116-.441-1.322-4.433-6.696-4.433-2.718 0-5.368 1.846-6.596 4.595-1.31 2.931-.723 6.102 1.61 8.7A215.016 215.016 0 0 0 19.1 30.575c2.222-2.06 7.501-7.084 13.302-13.547 2.333-2.598 2.92-5.769 1.61-8.7zm-1.4 3.56a1.667 1.667 0 0 1-3.328.221c-.195-2.933-2.248-3.246-2.335-3.258a1.666 1.666 0 1 1 .45-3.302c1.672.228 4.914 1.846 5.213 6.339zm-2.504 2.985c.309.307.488.737.488 1.179 0 .437-.18.866-.488 1.178a1.696 1.696 0 0 1-1.18.488c-.437 0-.867-.18-1.18-.488a1.692 1.692 0 0 1-.487-1.178c0-.442.179-.872.487-1.18a1.694 1.694 0 0 1 1.18-.487c.438 0 .867.18 1.18.488z"/></g></g></svg>