<svg xmlns="http://www.w3.org/2000/svg" width="43" height="31" viewBox="0 0 43 31"><g><g><path fill="#50c3af" d="M6.92 10.235C6.92 4.922 11.24.6 16.547.6c5.308 0 9.626 4.322 9.626 9.635 0 5.312-4.318 9.634-9.626 9.634-5.307 0-9.625-4.322-9.625-9.634zm3.333 0c0 3.473 2.823 6.299 6.293 6.299s6.294-2.826 6.294-6.3c0-3.473-2.823-6.299-6.294-6.299-3.47 0-6.293 2.826-6.293 6.3zm22.54 18.997c0 .921-.746 1.668-1.666 1.668H1.966C1.046 30.9.3 30.153.3 29.232c0-4.865 9.06-8.123 11.837-9.004a1.663 1.663 0 0 1 1.58.316l2.83 2.396 2.83-2.396a1.661 1.661 0 0 1 1.579-.316c2.777.881 11.837 4.139 11.837 9.004zm-4.481-1.668c-1.584-1.34-4.575-2.844-7.5-3.868l-3.19 2.701c-.62.526-1.53.526-2.152 0l-3.19-2.701c-2.924 1.024-5.915 2.527-7.499 3.868zm13.888-1.08c0 .69-.56 1.25-1.25 1.25h-6.203a1.25 1.25 0 0 1 0-2.502h4.441c-.886-1.191-2.704-2.364-3.724-2.873a1.253 1.253 0 0 1-.562-1.676 1.25 1.25 0 0 1 1.673-.565c.576.286 5.625 2.89 5.625 6.365zm-7.99-12.332a3.834 3.834 0 0 0-5.318-3.53 1.25 1.25 0 0 1-.972-2.304 6.286 6.286 0 0 1 2.462-.499c3.49 0 6.327 2.841 6.327 6.333 0 3.493-2.838 6.335-6.327 6.335-1.69 0-3.279-.66-4.474-1.855a1.25 1.25 0 1 1 1.768-1.769 3.8 3.8 0 0 0 2.706 1.122 3.835 3.835 0 0 0 3.828-3.833z"/></g></g></svg>